<svg xmlns="http://www.w3.org/2000/svg" viewBox="0 0 450 100" width="450" height="100">
  <defs>
    <style>
      .text-bebek { fill: #d32f2f; font-family: 'Outfit', -apple-system, BlinkMacSystemFont, 'Segoe UI', Roboto, Helvetica, Arial, sans-serif; font-weight: 800; font-size: 38px; }
      .text-alrizky { fill: #ffffff; font-family: 'Outfit', -apple-system, BlinkMacSystemFont, 'Segoe UI', Roboto, Helvetica, Arial, sans-serif; font-weight: 700; font-size: 38px; }
      .accent { fill: #ffc107; }
    </style>
  </defs>
  
  <path class="accent" d="M30 65c-6 0-11-2-15-5-2-2-4-5-4-8s2-6 5-8c3-3 7-5 13-5h2c5 0 9 2 12 5h1c5-8 12-14 20-14 10 0 17 6 20 15 4 0 7 1 9 4 1 2 2 4 1 6-1 2-3 3-5 3h-3c-2 8-8 14-16 14-6 0-11-3-14-8h-6c-3 8-11 11-20 11H30z" />
  <path fill="#d32f2f" d="M60 48v5c0 5-4 9-9 9s-9-4-9-9v-5c0-5 4-9 9-9s9 4 9 9z" />
  <circle cx="51" cy="48" r="3" fill="#fff" />
  <path fill="#1f1f1f" d="M35 52c-4 0-7 2-7 4h14c0-2-3-4-7-4z" />
  
  <text x="95" y="66" class="text-bebek">Bebek</text>
  <text x="215" y="66" class="text-alrizky">Al - Rizky</text>
</svg>
