<svg xmlns="http://www.w3.org/2000/svg" viewBox="0 0 650 120" width="650" height="120">
  <defs>
    <linearGradient id="textGrad2" x1="0%" y1="0%" x2="100%" y2="0%">
      <stop offset="0%" stop-color="#EF4444"/>
      <stop offset="100%" stop-color="#DC2626"/>
    </linearGradient>
    <linearGradient id="goldGrad2" x1="0%" y1="0%" x2="100%" y2="100%">
      <stop offset="0%" stop-color="#FBBF24"/>
      <stop offset="100%" stop-color="#D97706"/>
    </linearGradient>
  </defs>

  <!-- Elegant Icon (A minimalist plate and abstract golden duck) -->
  <g transform="translate(10, 15)">
    <!-- Plate under -->
    <path d="M 0 75 Q 45 95 90 75 Q 45 80 0 75" fill="#4B5563"/>
    <!-- Abstract duck silhouette -->
    <path d="M 45 75 C 10 65 15 20 40 10 C 50 5 60 15 65 25 C 70 35 75 40 85 45 C 95 50 90 60 75 65 C 65 65 55 75 45 75 Z" fill="url(#goldGrad2)"/>
    <circle cx="45" cy="30" r="5" fill="#FFFFFF"/>
    <circle cx="46" cy="30" r="2" fill="#111827"/>
    <path d="M 60 35 Q 75 40 75 45 Q 65 50 60 35" fill="#EF4444"/> <!-- Beak -->
  </g>

  <!-- Typography -->
  <g transform="translate(115, 75)">
    <text font-family="'Outfit', -apple-system, sans-serif" font-weight="900" font-size="52" fill="#FFFFFF">BEBEK</text>
    <text x="205" font-family="'Outfit', -apple-system, sans-serif" font-weight="300" font-size="52" fill="url(#textGrad2)">AL-RIZKY</text>
    <text x="5" y="25" font-family="'Outfit', -apple-system, sans-serif" font-weight="600" font-size="14" fill="#D1D5DB" letter-spacing="5" text-transform="uppercase">Cita Rasa Autentik</text>
  </g>
</svg>
