<svg xmlns="http://www.w3.org/2000/svg" viewBox="0 0 200 200" width="200" height="200">
  <path fill="#ffc107" d="M50 150 C 30 150 20 130 20 110 C 20 80 40 60 70 60 C 80 60 90 70 95 80 C 110 50 140 40 160 50 C 180 60 190 90 170 120 C 160 135 140 150 100 150 Z" />
  <path fill="#e0a800" d="M70 110 C 90 100 120 100 130 120 C 120 130 90 130 70 110 Z" />
  <circle cx="140" cy="75" r="12" fill="#fff" />
  <circle cx="145" cy="75" r="6" fill="#1f1f1f" />
  <path fill="#ffffff" d="M165 85 C 180 85 195 90 195 95 C 195 100 180 105 165 105 Z" />
</svg>
