<svg xmlns="http://www.w3.org/2000/svg" viewBox="0 0 300 100" width="300" height="100">
    <defs>
        <linearGradient id="goldGrad" x1="0%" y1="0%" x2="100%" y2="100%">
            <stop offset="0%" stop-color="#F2C94C" />
            <stop offset="100%" stop-color="#F2994A" />
        </linearGradient>
        <linearGradient id="redGrad" x1="0%" y1="0%" x2="100%" y2="100%">
            <stop offset="0%" stop-color="#ff6659" />
            <stop offset="100%" stop-color="#d32f2f" />
        </linearGradient>
    </defs>
    <g transform="translate(10, 10)">
        <circle cx="40" cy="40" r="40" fill="url(#redGrad)" />
        <path d="M45,20 C55,20 60,25 60,35 C60,40 65,42 70,45 C73,47 73,50 70,52 Q50,65 30,65 C20,65 15,55 15,40 C15,25 35,20 45,20 Z" fill="url(#goldGrad)" />
        <circle cx="48" cy="30" r="3" fill="#111" />
        <path d="M57,32 L65,30 L62,36 Z" fill="#fff" />
    </g>
    <text x="100" y="55" font-family="-apple-system, BlinkMacSystemFont, 'Segoe UI', Roboto, Helvetica, Arial, sans-serif" font-weight="800" font-size="36" fill="#ff6659">
        Bebek
    </text>
    <text x="100" y="80" font-family="-apple-system, BlinkMacSystemFont, 'Segoe UI', Roboto, Helvetica, Arial, sans-serif" font-weight="300" font-size="18" fill="#fff" letter-spacing="8">
        PREMIUM
    </text>
</svg>
